<svg width="375" height="278" viewBox="0 0 375 278" fill="none" xmlns="http://www.w3.org/2000/svg">
    <defs>
        <linearGradient id="paint0_linear_2277_72469" x1="364.001" y1="318.449" x2="145.351"
            y2="-284.9" gradientUnits="userSpaceOnUse">
            <stop stop-color="#4267EC" />
            <stop offset="1" stop-color="white" stop-opacity="0" />
        </linearGradient>
    </defs>
    <g style="mix-blend-mode:overlay" opacity="0.8">
        <path fill-rule="evenodd" clip-rule="evenodd"
            d="M183.448 0V20.6022H190.952V100.775H200.81V76.0848H206.001V70.1212L217.357 76.0848H220.139V61.253L233.727 39.756L247.314 61.253V111.691H253.693V121.493H263.104V81.4898H270.904L270.579 64.8919H279.605V60.1381H288.75L290.157 31.3911L291.564 60.1381H293.323V64.8919H295.697L294.827 109.343H296.512V89.732L315.421 76.0848V100.775L334.331 86.757V25.5064H346.003V14.1378L365.998 31.3911V14.1378L372.701 19.9211L374.376 21.3669L374.795 21.7283L375.004 21.909L375 23.2061V24.7061V27.2061L375.004 50.2061L375.004 278.133H372.813H365.998H346.855H346.003H334.331H315.421H296.512H292.593H275.629H273.683H264.198H263.104H247.314H237.023H220.139H200.81H190.952H174.245H167.103H150.35H145.807H130.424H122.047H108.516H103.614H96.6357H84.7559H81.7058H69.8261H63.4152H57.9456H36.6071H27.766H16.2672H4.76697H3.05176e-05V269.206V261.206V253.206V242.706V125.43V97.5943V84.3019V64.9345V17.6154H4.76697V27.6648H16.2672V36.8657H27.766V84.3019H36.6071V62.2469H39.755V59.8146H60.2665V62.2469H63.4152V108.235H69.8261V49.1308H72.9755V46.6984H93.4863V49.1308H96.6357V83.1659H103.614V62.2469H106.763V59.8146H127.273V62.2469H130.424V70.1212L137.005 78.7844V93.3087H145.807V84.3019H150.35V62.2469H167.103V49.1896L174.245 41.7422V20.6022H181.75V0H183.448Z"
            fill="url(#paint0_linear_2277_72469)" />
    </g>
</svg>
